<mxfile host="app.diagrams.net" modified="2024-01-27T17:25:24.987Z" agent="Mozilla/5.0 (Windows NT 10.0; Win64; x64) AppleWebKit/537.36 (KHTML, like Gecko) Chrome/119.0.0.0 Safari/537.36 OPR/105.0.0.0 (Edition std-1)" etag="_ZPpMLF3IUOWEOvZ5DGY" version="22.1.21" type="github">
  <diagram name="Page-1" id="GeGy4jNhu3hiiU9e6D2W">
    <mxGraphModel dx="1285" dy="492" grid="1" gridSize="10" guides="1" tooltips="1" connect="1" arrows="1" fold="1" page="1" pageScale="1" pageWidth="850" pageHeight="1100" math="0" shadow="0">
      <root>
        <mxCell id="0" />
        <mxCell id="1" parent="0" />
        <mxCell id="oo0nHbXOfOttAnqZafXM-2" value="" style="rounded=0;whiteSpace=wrap;html=1;" parent="1" vertex="1">
          <mxGeometry x="220" y="140" width="340" height="340" as="geometry" />
        </mxCell>
        <mxCell id="oo0nHbXOfOttAnqZafXM-14" style="edgeStyle=orthogonalEdgeStyle;rounded=0;orthogonalLoop=1;jettySize=auto;html=1;entryX=0;entryY=0.5;entryDx=0;entryDy=0;endArrow=none;endFill=0;" parent="1" source="oo0nHbXOfOttAnqZafXM-1" target="oo0nHbXOfOttAnqZafXM-10" edge="1">
          <mxGeometry relative="1" as="geometry" />
        </mxCell>
        <mxCell id="oo0nHbXOfOttAnqZafXM-16" style="edgeStyle=orthogonalEdgeStyle;rounded=0;orthogonalLoop=1;jettySize=auto;html=1;entryX=0;entryY=0.5;entryDx=0;entryDy=0;exitX=0.5;exitY=0.5;exitDx=0;exitDy=0;exitPerimeter=0;endArrow=none;endFill=0;" parent="1" source="oo0nHbXOfOttAnqZafXM-1" target="oo0nHbXOfOttAnqZafXM-15" edge="1">
          <mxGeometry relative="1" as="geometry">
            <Array as="points">
              <mxPoint x="230" y="310" />
              <mxPoint x="230" y="375" />
            </Array>
          </mxGeometry>
        </mxCell>
        <mxCell id="oo0nHbXOfOttAnqZafXM-1" value="Usuario" style="shape=umlActor;verticalLabelPosition=bottom;verticalAlign=top;html=1;outlineConnect=0;" parent="1" vertex="1">
          <mxGeometry x="170" y="280" width="30" height="60" as="geometry" />
        </mxCell>
        <mxCell id="oo0nHbXOfOttAnqZafXM-20" style="edgeStyle=orthogonalEdgeStyle;rounded=0;orthogonalLoop=1;jettySize=auto;html=1;entryX=1;entryY=0.5;entryDx=0;entryDy=0;endArrow=none;endFill=0;" parent="1" source="oo0nHbXOfOttAnqZafXM-9" target="oo0nHbXOfOttAnqZafXM-19" edge="1">
          <mxGeometry relative="1" as="geometry">
            <Array as="points">
              <mxPoint x="550" y="310" />
              <mxPoint x="550" y="215" />
            </Array>
          </mxGeometry>
        </mxCell>
        <mxCell id="oo0nHbXOfOttAnqZafXM-9" value="Bibliotecario" style="shape=umlActor;verticalLabelPosition=bottom;verticalAlign=top;html=1;outlineConnect=0;" parent="1" vertex="1">
          <mxGeometry x="580" y="280" width="30" height="60" as="geometry" />
        </mxCell>
        <mxCell id="oo0nHbXOfOttAnqZafXM-10" value="Devolver libro" style="ellipse;whiteSpace=wrap;html=1;" parent="1" vertex="1">
          <mxGeometry x="355" y="285" width="70" height="50" as="geometry" />
        </mxCell>
        <mxCell id="oo0nHbXOfOttAnqZafXM-15" value="Buscar libro" style="ellipse;whiteSpace=wrap;html=1;" parent="1" vertex="1">
          <mxGeometry x="270" y="350" width="70" height="50" as="geometry" />
        </mxCell>
        <mxCell id="oo0nHbXOfOttAnqZafXM-19" value="Prestar libro" style="ellipse;whiteSpace=wrap;html=1;" parent="1" vertex="1">
          <mxGeometry x="355" y="190" width="70" height="50" as="geometry" />
        </mxCell>
        <mxCell id="oo0nHbXOfOttAnqZafXM-21" style="edgeStyle=orthogonalEdgeStyle;rounded=0;orthogonalLoop=1;jettySize=auto;html=1;entryX=0.5;entryY=0.5;entryDx=0;entryDy=0;entryPerimeter=0;endArrow=none;endFill=0;" parent="1" source="oo0nHbXOfOttAnqZafXM-19" target="oo0nHbXOfOttAnqZafXM-1" edge="1">
          <mxGeometry relative="1" as="geometry">
            <Array as="points">
              <mxPoint x="230" y="215" />
              <mxPoint x="230" y="310" />
            </Array>
          </mxGeometry>
        </mxCell>
        <mxCell id="oo0nHbXOfOttAnqZafXM-23" style="edgeStyle=orthogonalEdgeStyle;rounded=0;orthogonalLoop=1;jettySize=auto;html=1;entryX=0.5;entryY=0.5;entryDx=0;entryDy=0;entryPerimeter=0;endArrow=none;endFill=0;" parent="1" source="oo0nHbXOfOttAnqZafXM-10" target="oo0nHbXOfOttAnqZafXM-9" edge="1">
          <mxGeometry relative="1" as="geometry" />
        </mxCell>
        <mxCell id="oo0nHbXOfOttAnqZafXM-24" value="Verificar usuario" style="ellipse;whiteSpace=wrap;html=1;" parent="1" vertex="1">
          <mxGeometry x="450" y="150" width="70" height="50" as="geometry" />
        </mxCell>
        <mxCell id="oo0nHbXOfOttAnqZafXM-27" value="" style="endArrow=none;dashed=1;html=1;rounded=0;exitX=1;exitY=0;exitDx=0;exitDy=0;entryX=0;entryY=0.5;entryDx=0;entryDy=0;" parent="1" source="oo0nHbXOfOttAnqZafXM-19" target="oo0nHbXOfOttAnqZafXM-24" edge="1">
          <mxGeometry width="50" height="50" relative="1" as="geometry">
            <mxPoint x="400" y="440" as="sourcePoint" />
            <mxPoint x="450" y="390" as="targetPoint" />
          </mxGeometry>
        </mxCell>
        <mxCell id="oo0nHbXOfOttAnqZafXM-28" value="Include" style="text;html=1;strokeColor=none;fillColor=none;align=center;verticalAlign=middle;whiteSpace=wrap;rounded=0;rotation=-35;" parent="1" vertex="1">
          <mxGeometry x="410" y="170" width="40" height="20" as="geometry" />
        </mxCell>
        <mxCell id="9rmpXBLOJnbZeqgp40Ut-1" value="CU-1" style="text;html=1;align=center;verticalAlign=middle;resizable=0;points=[];autosize=1;strokeColor=none;fillColor=none;" parent="1" vertex="1">
          <mxGeometry x="280" y="400" width="50" height="30" as="geometry" />
        </mxCell>
        <mxCell id="9rmpXBLOJnbZeqgp40Ut-2" value="CU-2" style="text;html=1;align=center;verticalAlign=middle;resizable=0;points=[];autosize=1;strokeColor=none;fillColor=none;" parent="1" vertex="1">
          <mxGeometry x="365" y="335" width="50" height="30" as="geometry" />
        </mxCell>
        <mxCell id="9rmpXBLOJnbZeqgp40Ut-3" value="CU-3" style="text;html=1;align=center;verticalAlign=middle;resizable=0;points=[];autosize=1;strokeColor=none;fillColor=none;" parent="1" vertex="1">
          <mxGeometry x="365" y="240" width="50" height="30" as="geometry" />
        </mxCell>
        <mxCell id="9rmpXBLOJnbZeqgp40Ut-4" value="CU-4" style="text;html=1;align=center;verticalAlign=middle;resizable=0;points=[];autosize=1;strokeColor=none;fillColor=none;" parent="1" vertex="1">
          <mxGeometry x="510" y="180" width="50" height="30" as="geometry" />
        </mxCell>
        <mxCell id="ecbSas8koytLq4w4-LBh-1" value="A-1" style="text;html=1;align=center;verticalAlign=middle;resizable=0;points=[];autosize=1;strokeColor=none;fillColor=none;" vertex="1" parent="1">
          <mxGeometry x="600" y="295" width="40" height="30" as="geometry" />
        </mxCell>
        <mxCell id="ecbSas8koytLq4w4-LBh-2" value="A-2" style="text;html=1;align=center;verticalAlign=middle;resizable=0;points=[];autosize=1;strokeColor=none;fillColor=none;" vertex="1" parent="1">
          <mxGeometry x="145" y="295" width="40" height="30" as="geometry" />
        </mxCell>
      </root>
    </mxGraphModel>
  </diagram>
</mxfile>
